#N canvas 87 130 410 290 10;
#N canvas 582 247 333 427 program 1;
#N canvas 464 119 628 416 hidInterface 0;
#X floatatom 84 359 6 0 0 0 - - -, f 6;
#X obj 192 164 tgl 35 0 empty empty empty 0 -6 0 8 -24198 -1 -1 25
25;
#X floatatom 653 345 12 0 0 1 value - -, f 12;
#X text 296 317 outlet message format:;
#X floatatom 76 84 5 0 0 1 ev_syn - -, f 5;
#X obj 49 83 +;
#X msg 49 63 1;
#X msg 375 140 close;
#X msg 375 119 refresh;
#X text 436 117 refresh device list;
#X msg 437 201 poll 20;
#X msg 375 201 poll 2;
#X text 371 186 start polling and set the poll delay in ms;
#X obj 17 291 route key rel abs syn;
#X obj 16 462 tgl 25 0 empty empty empty 0 -6 0 8 -195568 -1 -1 0 1
;
#X floatatom 580 429 7 0 0 0 - - -, f 7;
#X msg 375 161 print;
#X obj 305 250 hid 0;
#X text 438 141 close the device;
#X text 438 162 print the device and element lists;
#X text 10 212 Any non-zero value starts polling \,;
#X text 9 225 0 stops the polling. If the number;
#X text 10 238 is greater than 1 \, then the poll;
#X text 10 251 delay is set to that number.;
#X obj 493 321 unpack s s f;
#X text 319 310 event_type event_code value;
#X obj 84 338 route abs_x abs_y abs_z abs_rx abs_ry abs_rz abs_throttle
;
#X floatatom 657 429 7 0 0 0 - - -, f 7;
#X floatatom 134 359 6 0 0 0 - - -, f 6;
#X floatatom 184 359 6 0 0 0 - - -, f 6;
#X floatatom 234 359 6 0 0 0 - - -, f 6;
#X floatatom 284 359 6 0 0 0 - - -, f 6;
#X floatatom 334 359 6 0 0 0 - - -, f 6;
#X floatatom 384 359 6 0 0 0 - - -, f 6;
#X obj 46 462 tgl 25 0 empty empty empty 0 -6 0 8 -195568 -1 -1 0 1
;
#X obj 76 462 tgl 25 0 empty empty empty 0 -6 0 8 -195568 -1 -1 0 1
;
#X obj 106 462 tgl 25 0 empty empty empty 0 -6 0 8 -195568 -1 -1 0
1;
#X obj 136 462 tgl 25 0 empty empty empty 0 -6 0 8 -195568 -1 -1 0
1;
#X obj 166 462 tgl 25 0 empty empty empty 0 -6 0 8 -195568 -1 -1 0
1;
#X obj 196 462 tgl 25 0 empty empty empty 0 -6 0 8 -195568 -1 -1 0
1;
#X obj 226 462 tgl 25 0 empty empty empty 0 -6 0 8 -195568 -1 -1 0
1;
#X obj 256 462 tgl 25 0 empty empty empty 0 -6 0 8 -195568 -1 -1 0
1;
#X obj 286 462 tgl 25 0 empty empty empty 0 -6 0 8 -195568 -1 -1 0
1;
#X obj 316 462 tgl 25 0 empty empty empty 0 -6 0 8 -195568 -1 -1 0
1;
#X obj 346 462 tgl 25 0 empty empty empty 0 -6 0 8 -195568 -1 -1 0
1;
#X obj 376 462 tgl 25 0 empty empty empty 0 -6 0 8 -195568 -1 -1 0
1;
#X obj 406 462 tgl 25 0 empty empty empty 0 -6 0 8 -195568 -1 -1 0
1;
#X obj 16 420 route btn_0 btn_1 btn_2 btn_3 btn_4 btn_5 btn_6 btn_7
btn_8 btn_9 btn_10 btn_11 btn_12 btn_13 btn_14 btn_15;
#X obj 436 462 tgl 25 0 empty empty empty 0 -6 0 8 -195568 -1 -1 0
1;
#X obj 466 462 tgl 25 0 empty empty empty 0 -6 0 8 -195568 -1 -1 0
1;
#X msg 26 155 debug 5;
#X msg 299 145 info;
#N canvas 749 109 411 235 see 0;
#N canvas 108 318 543 264 route 0;
#X obj 27 14 inlet;
#X obj 72 226 outlet;
#X obj 19 226 outlet;
#X obj 172 226 outlet;
#X obj 222 204 symbol;
#X obj 222 226 outlet;
#X obj 272 204 symbol;
#X obj 272 226 outlet;
#X obj 322 204 symbol;
#X obj 322 226 outlet;
#X obj 372 204 symbol;
#X obj 372 226 outlet;
#X obj 122 225 outlet;
#X obj 422 204 symbol;
#X obj 422 226 outlet;
#X obj 472 204 symbol;
#X obj 472 226 outlet;
#X obj 26 63 route open device poll total product manufacturer transport
type vendorID productID;
#X connect 0 0 17 0;
#X connect 4 0 5 0;
#X connect 6 0 7 0;
#X connect 8 0 9 0;
#X connect 10 0 11 0;
#X connect 13 0 14 0;
#X connect 15 0 16 0;
#X connect 17 0 2 0;
#X connect 17 1 1 0;
#X connect 17 2 12 0;
#X connect 17 3 3 0;
#X connect 17 4 4 0;
#X connect 17 5 6 0;
#X connect 17 6 8 0;
#X connect 17 7 10 0;
#X connect 17 8 13 0;
#X connect 17 9 15 0;
#X restore 117 70 pd route info;
#X obj 81 96 tgl 15 0 empty empty open 0 -6 0 8 -262144 -1 -1 1 1;
#X obj 110 22 inlet;
#X obj 251 49 print info;
#X symbolatom 304 93 0 0 0 0 productID - -;
#X symbolatom 304 112 0 0 0 0 vendorID - -;
#X symbolatom 304 151 0 0 0 0 transport - -;
#X symbolatom 304 171 0 0 0 0 manufacturer - -;
#X symbolatom 186 192 0 0 0 0 product - -;
#X floatatom 97 140 5 0 0 0 device - -, f 5;
#X floatatom 97 162 5 0 0 0 poll - -, f 5;
#X symbolatom 304 131 0 0 0 0 type - -;
#X floatatom 97 182 5 0 0 0 total - -, f 5;
#X connect 0 0 1 0;
#X connect 0 1 9 0;
#X connect 0 2 10 0;
#X connect 0 3 12 0;
#X connect 0 4 8 0;
#X connect 0 5 7 0;
#X connect 0 6 6 0;
#X connect 0 7 11 0;
#X connect 0 8 5 0;
#X connect 0 9 4 0;
#X connect 2 0 0 0;
#X connect 2 0 3 0;
#X restore 421 271 pd see device info;
#N canvas 111 105 467 346 test 0;
#X obj 144 45 inlet;
#X obj 88 104 route DESKTOP;
#X obj 87 158 route DESKTOP57;
#X obj 70 207 bng 15 250 50 0 empty empty empty 0 -6 0 8 -262144 -1
-1;
#X floatatom 95 212 5 0 0 0 - - -, f 5;
#X obj 148 215 spigot;
#X obj 189 192 tgl 15 0 empty empty empty 0 -6 0 8 -262144 -1 -1 0
1;
#X obj 292 122 spigot;
#X obj 333 99 tgl 15 0 empty empty empty 0 -6 0 8 -262144 -1 -1 0 1
;
#X connect 0 0 1 0;
#X connect 0 0 7 0;
#X connect 1 0 2 0;
#X connect 2 0 3 0;
#X connect 2 0 4 0;
#X connect 2 0 5 0;
#X connect 6 0 5 1;
#X connect 8 0 7 1;
#X restore 198 303 pd test;
#X msg 505 201 poll 200;
#N canvas 162 133 570 420 serin 0;
#X obj 209 61 cnv 15 15 15 empty \$0-debug-canvas 5 4 8 0 14 -233017
-1 0;
#X obj 60 61 hradio 15 1 1 10 empty empty empty 0 -6 0 8 -261689 -1
-1 5;
#X obj 60 13 inlet;
#X msg 200 202 label \$1;
#X obj 200 180 makefilename %d;
#X obj 59 108 int;
#X obj 59 337 outlet;
#X msg 201 306 set \$1 \$2;
#X obj 59 266 trigger bang anything;
#X obj 201 286 list;
#X msg 60 210 debug \$1;
#X obj 200 225 send \$0-debug-canvas;
#X connect 1 0 5 0;
#X connect 2 0 1 0;
#X connect 3 0 11 0;
#X connect 4 0 3 0;
#X connect 5 0 4 0;
#X connect 5 0 10 0;
#X connect 7 0 6 0;
#X connect 8 0 6 0;
#X connect 8 1 9 0;
#X connect 9 0 7 0;
#X connect 10 0 8 0;
#X coords 0 -1 1 1 165 17 1 60 60;
#X restore 26 134 pd serin;
#X msg 263 114 open 3;
#X obj 250 300 pddp/print;
#N canvas 162 133 570 420 serin 0;
#X obj 286 61 cnv 15 30 15 empty \$0-open-canvas 3 4 8 0 14 -233017
-1 0;
#X obj 60 61 hradio 15 1 1 15 empty empty empty 0 -6 0 8 -225271 -1
-1 3;
#X obj 60 13 inlet;
#X msg 200 202 label \$1;
#X obj 200 180 makefilename %d;
#X obj 59 108 int;
#X obj 59 337 outlet;
#X msg 201 306 set \$1 \$2;
#X obj 59 266 trigger bang anything;
#X obj 201 286 list;
#X msg 60 210 open \$1;
#X obj 200 225 send \$0-open-canvas;
#X connect 1 0 5 0;
#X connect 2 0 1 0;
#X connect 3 0 11 0;
#X connect 4 0 3 0;
#X connect 5 0 4 0;
#X connect 5 0 10 0;
#X connect 7 0 6 0;
#X connect 8 0 6 0;
#X connect 8 1 9 0;
#X connect 9 0 7 0;
#X connect 10 0 8 0;
#X coords 0 -1 1 1 257 17 1 60 60;
#X restore 263 92 pd serin;
#N canvas 502 253 494 344 META 0;
#X text 12 145 HELP_PATCH_AUTHORS "pd meta" information added by Jonathan
Wilkes for Pd version 0.42.;
#X text 12 25 LICENSE GPL;
#X text 12 125 AUTHOR Hans-Christoph Steiner;
#X text 12 65 INLET_0;
#X text 12 85 OUTLET_0;
#X text 12 105 OUTLET_1;
#X text 12 5 KEYWORDS control user_input;
#X text 12 45 DESCRIPTION;
#X restore 658 523 pd META;
#N canvas 516 105 450 298 frets 0;
#X obj 125 31 inlet;
#X obj 138 40 inlet;
#X obj 145 51 inlet;
#X obj 155 61 inlet;
#X obj 65 82 inlet;
#X obj 110 95 * 2;
#X obj 142 133 * 4;
#X obj 152 143 * 8;
#X obj 172 152 * 16;
#X obj 111 170 t b f;
#X obj 101 209 +;
#X obj 152 195 t b f;
#X obj 142 234 +;
#X obj 202 199 t b f;
#X obj 192 238 +;
#X obj 249 202 t b f;
#X obj 239 241 +;
#X floatatom 287 271 5 0 0 0 - - -, f 5;
#X obj 200 271 s fretval;
#X connect 0 0 5 0;
#X connect 1 0 6 0;
#X connect 2 0 7 0;
#X connect 3 0 8 0;
#X connect 4 0 10 0;
#X connect 5 0 9 0;
#X connect 6 0 11 0;
#X connect 7 0 13 0;
#X connect 8 0 15 0;
#X connect 9 0 10 0;
#X connect 9 1 10 1;
#X connect 10 0 12 0;
#X connect 11 0 12 0;
#X connect 11 1 12 1;
#X connect 12 0 14 0;
#X connect 13 0 14 0;
#X connect 13 1 14 1;
#X connect 14 0 16 0;
#X connect 15 0 16 0;
#X connect 15 1 16 1;
#X connect 16 0 17 0;
#X connect 16 0 18 0;
#X restore 34 505 pd frets;
#X obj 206 391 s whammy;
#X obj 83 384 s fretslide;
#X obj 282 399 s rotate;
#X obj 349 509 s start;
#X obj 284 507 s back;
#X obj 679 326 s tilt;
#X floatatom 679 307 12 0 0 1 value - -, f 12;
#X obj 650 249 moses 168;
#X obj 647 289 moses 55;
#X obj 580 408 route abs_hat0x abs_hat0y;
#X obj 167 57 loadbang;
#X obj 657 472 s strum;
#X obj 580 496 s PatchSelect;
#X obj 317 380 div 256;
#X obj 659 448 abs;
#X connect 0 0 62 0;
#X connect 1 0 17 0;
#X connect 4 0 5 1;
#X connect 5 0 4 0;
#X connect 6 0 5 0;
#X connect 7 0 17 0;
#X connect 8 0 17 0;
#X connect 10 0 17 0;
#X connect 11 0 17 0;
#X connect 13 0 47 0;
#X connect 13 2 26 0;
#X connect 13 3 6 0;
#X connect 14 0 60 0;
#X connect 15 0 73 0;
#X connect 16 0 17 0;
#X connect 17 0 13 0;
#X connect 17 0 24 0;
#X connect 17 0 53 0;
#X connect 17 0 57 0;
#X connect 17 1 52 0;
#X connect 24 2 2 0;
#X connect 24 2 68 0;
#X connect 26 0 0 0;
#X connect 26 1 28 0;
#X connect 26 2 29 0;
#X connect 26 3 30 0;
#X connect 26 4 31 0;
#X connect 26 5 32 0;
#X connect 26 6 33 0;
#X connect 26 7 70 0;
#X connect 27 0 75 0;
#X connect 30 0 61 0;
#X connect 31 0 74 0;
#X connect 34 0 60 1;
#X connect 36 0 60 3;
#X connect 37 0 60 2;
#X connect 39 0 60 4;
#X connect 43 0 65 0;
#X connect 44 0 64 0;
#X connect 47 0 14 0;
#X connect 47 1 34 0;
#X connect 47 2 35 0;
#X connect 47 3 36 0;
#X connect 47 4 37 0;
#X connect 47 5 38 0;
#X connect 47 6 39 0;
#X connect 47 7 40 0;
#X connect 47 8 41 0;
#X connect 47 9 42 0;
#X connect 47 10 43 0;
#X connect 47 11 44 0;
#X connect 47 12 45 0;
#X connect 47 13 46 0;
#X connect 47 14 48 0;
#X connect 47 15 49 0;
#X connect 50 0 17 0;
#X connect 51 0 17 0;
#X connect 54 0 17 0;
#X connect 55 0 50 0;
#X connect 56 0 17 0;
#X connect 58 0 56 0;
#X connect 67 0 66 0;
#X connect 68 0 69 0;
#X connect 69 1 67 0;
#X connect 70 0 15 0;
#X connect 70 1 27 0;
#X connect 71 0 1 0;
#X connect 74 0 32 0;
#X connect 74 0 63 0;
#X connect 75 0 72 0;
#X restore 7 11 pd hidInterface;
#N canvas 663 251 450 191 velocity 0;
#X msg 115 105 \; velocityName label Flowing, f 23;
#X obj 121 21 tgl 15 0 empty fixedOnOff empty 17 7 0 10 -262144 -1
-1 0 1;
#X obj 118 38 select 1;
#X msg 126 63 \; velocityName label Fixed Velocity;
#X obj 30 60 loadbang;
#X msg 30 82 \; receiveVelocity 80;
#X connect 1 0 2 0;
#X connect 2 0 0 0;
#X connect 2 1 3 0;
#X connect 4 0 5 0;
#X restore 8 132 pd velocity;
#N canvas 2 79 450 300 patch 0;
#X obj 200 195 pgmout;
#X obj 245 146 r channel;
#X obj 340 35 r PatchSelect;
#X floatatom 358 216 5 0 0 0 - - patch, f 5;
#X floatatom 266 92 5 0 0 0 - - -, f 5;
#X obj 344 55 select 1 -1;
#X msg 349 82 1;
#X msg 349 82;
#X msg 388 82 -1;
#X obj 373 118 t b f;
#X obj 412 153 f;
#X obj 374 152 + 0;
#X obj 368 183 / 2;
#X obj 227 48 r directpatch;
#X obj 316 121 * 2;
#X connect 1 0 0 1;
#X connect 2 0 5 0;
#X connect 5 0 6 0;
#X connect 5 1 8 0;
#X connect 6 0 9 0;
#X connect 8 0 9 0;
#X connect 9 0 10 0;
#X connect 9 1 11 1;
#X connect 10 0 11 0;
#X connect 11 0 10 1;
#X connect 11 0 12 0;
#X connect 12 0 3 0;
#X connect 13 0 14 0;
#X connect 13 0 0 0;
#X connect 14 0 10 1;
#X restore 9 181 pd patch;
#N canvas 492 112 616 417 note 1;
#X obj 104 -139 r fretval;
#X obj 265 196 noteout;
#X obj 336 156 r channel;
#X msg 264 154 80;
#X msg 314 92 set \$1;
#X obj 315 61 r velocity;
#X obj 136 -10 r strum;
#X obj 136 15 select 1 0;
#X obj 224 122 f;
#X obj 170 69 t b b;
#N canvas 566 203 538 436 displayNote 0;
#X obj 135 6 inlet;
#X obj 73 210 symbol \$1;
#X msg 245 118 C;
#X msg 194 117 D;
#X msg 181 117 Eb;
#X msg 166 117 E;
#X msg 162 148 F;
#X msg 55 117 B;
#X msg 71 117 Bb;
#X msg 90 117 A;
#X msg 107 117 Ab;
#X msg 121 117 G;
#X msg 318 134 F#, f 1;
#X obj 57 82 route 11 10 9 8 7 6 5 4 3 2 1 0;
#X obj 98 61 mod 12;
#X msg 217 160 C#;
#X obj 374 84 div 12;
#X obj 138 33 t f f;
#X text 345 504 updated for Pd version 0.37;
#X obj 12 504 print;
#X msg 65 294 set \$1;
#X obj 324 218 makefilename not-set-yet;
#X symbolatom 184 312 10 0 0 0 - - -, f 10;
#X obj 64 240 makefilename %s%%d;
#X msg 321 280 \; strum label \$1;
#X connect 0 0 17 0;
#X connect 1 0 23 0;
#X connect 2 0 1 0;
#X connect 3 0 1 0;
#X connect 4 0 1 0;
#X connect 5 0 1 0;
#X connect 6 0 1 0;
#X connect 7 0 1 0;
#X connect 8 0 1 0;
#X connect 9 0 1 0;
#X connect 10 0 1 0;
#X connect 11 0 1 0;
#X connect 12 0 1 0;
#X connect 13 0 7 0;
#X connect 13 1 8 0;
#X connect 13 2 9 0;
#X connect 13 3 10 0;
#X connect 13 4 11 0;
#X connect 13 5 12 0;
#X connect 13 6 6 0;
#X connect 13 7 5 0;
#X connect 13 8 4 0;
#X connect 13 9 3 0;
#X connect 13 10 15 0;
#X connect 13 11 2 0;
#X connect 14 0 13 0;
#X connect 15 0 1 0;
#X connect 16 0 21 0;
#X connect 17 0 16 0;
#X connect 17 1 14 0;
#X connect 20 0 21 0;
#X connect 21 0 22 0;
#X connect 21 0 24 0;
#X connect 23 0 20 0;
#X restore 224 232 pd displayNote;
#X obj 184 196 s noteVal;
#X obj 471 -150 loadbang;
#X msg 469 -128 \; oct 3;
#X floatatom 242 53 5 0 0 0 - - -, f 5;
#N canvas 54 140 450 475 diatonicenator 1;
#X msg 120 231 11;
#X msg 150 231 9;
#X msg 182 231 7;
#X msg 214 231 5;
#X msg 246 231 4;
#X msg 278 231 2;
#X msg 311 231 0;
#X obj 300 93 r mode;
#X obj 233 124 +;
#X obj 120 196 route 6 5 4 3 2 1 0;
#X obj 186 171 mod 7;
#X obj 284 174 div 7;
#X obj 236 149 t f f;
#X obj 128 8 inlet;
#X floatatom 240 176 5 0 0 0 - - -, f 5;
#X obj 380 208 * 12;
#X obj 241 284 +;
#X obj 190 32 t b f;
#X obj 344 5 inlet;
#X obj 128 31 t b f, f 6;
#X msg 6 226 1;
#X obj 216 306 pack;
#X msg 38 225 2;
#X obj 164 386 outlet;
#X obj 213 349 route 1;
#X obj 272 384 s neckDiatonic;
#X connect 0 0 16 0;
#X connect 1 0 16 0;
#X connect 2 0 16 0;
#X connect 3 0 16 0;
#X connect 4 0 16 0;
#X connect 5 0 16 0;
#X connect 6 0 16 0;
#X connect 7 0 8 1;
#X connect 8 0 12 0;
#X connect 9 0 0 0;
#X connect 9 1 1 0;
#X connect 9 2 2 0;
#X connect 9 3 3 0;
#X connect 9 4 4 0;
#X connect 9 5 5 0;
#X connect 9 6 6 0;
#X connect 10 0 9 0;
#X connect 11 0 14 0;
#X connect 11 0 15 0;
#X connect 12 0 10 0;
#X connect 12 1 11 0;
#X connect 13 0 19 0;
#X connect 15 0 16 1;
#X connect 16 0 21 1;
#X connect 17 0 22 0;
#X connect 17 1 8 0;
#X connect 18 0 17 0;
#X connect 19 0 20 0;
#X connect 19 1 8 0;
#X connect 20 0 21 0;
#X connect 21 0 24 0;
#X connect 22 0 21 0;
#X connect 24 0 23 0;
#X connect 24 1 25 0;
#X restore 128 -107 pd diatonicenator;
#X obj 242 30 +;
#N canvas 381 333 450 300 noteOff 0;
#X obj 212 78 inlet;
#X obj 57 175 bng 15 250 50 0 notesOff empty NoteOff 17 7 0 10 -262144
-1 -1;
#X text 100 11 two modes: 1) sustains until next note;
#X text 178 26 2) until strum bar off.;
#X obj 57 76 inlet;
#X obj 251 100 tgl 15 1 empty nextNote empty 17 7 0 10 -262144 -1 -1
0 1;
#X obj 57 137 spigot;
#X obj 212 123 spigot;
#X obj 387 12 loadbang;
#X obj 128 100 tgl 15 0 empty strumOff empty 17 7 0 10 -262144 -1 -1
1 1;
#X obj 155 66 bng 15 250 50 0 empty empty empty 17 7 0 10 -262144 -1
-1;
#X msg 229 187 \; nextNote 1 \; strumOff 0;
#X msg 362 187 \; nextNote 0 \; strumOff 1;
#X obj 341 143 select 1 0;
#X obj 343 95 tgl 15 0 empty noteOffMode empty 17 7 0 10 -262144 -1
-1 0 1;
#X connect 0 0 7 0;
#X connect 4 0 6 0;
#X connect 5 0 7 1;
#X connect 6 0 1 0;
#X connect 7 0 1 0;
#X connect 8 0 12 0;
#X connect 9 0 6 1;
#X connect 10 0 9 0;
#X connect 13 0 11 0;
#X connect 13 1 12 0;
#X connect 14 0 13 0;
#X restore 74 90 pd noteOff;
#X obj 101 43 t b b;
#X obj 169 160 t f f f;
#X obj 71 196 s powerNoteVal;
#N canvas 130 94 450 300 neck 0;
#X obj 101 5 r fretslide;
#X floatatom 14 184 5 0 0 0 - - -, f 5;
#X obj 115 29 >> 8;
#X obj 157 137 tgl 15 0 empty empty empty 17 7 0 10 -262144 -1 -1 0
1;
#X obj 19 79 div 29;
#X obj 79 51 t f f f;
#X obj 79 83 > 0;
#X obj 119 84 < -6;
#X obj 97 113 ||;
#X obj 42 158 spigot;
#X obj 150 172 select 1;
#X obj 133 203 bng 15 250 50 0 empty empty empty 17 7 0 10 -262144
-1 -1;
#X obj 20 114 + 4;
#X obj 34 209 outlet;
#X obj 193 215 bng 15 250 50 0 empty empty empty 17 7 0 10 -262144
-1 -1;
#X connect 0 0 2 0;
#X connect 1 0 13 0;
#X connect 2 0 5 0;
#X connect 3 0 9 1;
#X connect 3 0 10 0;
#X connect 4 0 12 0;
#X connect 5 0 4 0;
#X connect 5 1 6 0;
#X connect 5 2 7 0;
#X connect 6 0 8 0;
#X connect 7 0 8 1;
#X connect 8 0 3 0;
#X connect 9 0 1 0;
#X connect 10 0 11 0;
#X connect 10 1 14 0;
#X connect 12 0 9 0;
#X restore 244 -140 pd neck;
#X obj 261 1 r octaveKeyOffset;
#N canvas 94 163 450 300 octaveKeyOffset 0;
#X obj 96 3 r key;
#X obj 7 50 +;
#N canvas 115 422 450 300 octave 0;
#X obj 39 26 r octave;
#X obj 21 74 * 12;
#X obj 39 26 r octave;
#X obj 21 74 * 12;
#X obj 15 100 outlet;
#X connect 0 0 1 0;
#X connect 1 0 4 0;
#X restore 7 4 pd octave;
#X obj 29 27 t b f;
#X obj 7 77 s octaveKeyOffset;
#X connect 0 0 3 0;
#X connect 1 0 4 0;
#X connect 2 0 1 0;
#X connect 3 0 1 0;
#X connect 3 1 1 1;
#X restore 436 -84 pd octaveKeyOffset;
#X connect 0 0 15 0;
#X connect 2 0 1 2;
#X connect 3 0 1 1;
#X connect 4 0 3 0;
#X connect 5 0 4 0;
#X connect 6 0 7 0;
#X connect 7 0 18 0;
#X connect 7 1 17 0;
#X connect 8 0 10 0;
#X connect 8 0 19 0;
#X connect 9 0 8 0;
#X connect 9 1 3 0;
#X connect 12 0 13 0;
#X connect 14 0 8 1;
#X connect 15 0 16 0;
#X connect 16 0 14 0;
#X connect 18 0 9 0;
#X connect 18 1 17 1;
#X connect 19 0 20 0;
#X connect 19 1 1 0;
#X connect 19 2 11 0;
#X connect 21 0 15 1;
#X connect 22 0 16 1;
#X restore 8 66 pd note;
#N canvas 2 85 450 300 channel 0;
#X obj 223 122 loadbang;
#X msg 215 149 1;
#X floatatom 213 179 5 0 0 0 - - channel, f 5;
#X obj 131 206 s channel;
#X obj 128 49 r directchannel;
#X obj 131 85 t f f;
#X connect 0 0 1 0;
#X connect 1 0 3 0;
#X connect 4 0 5 0;
#X connect 5 1 3 0;
#X restore 10 208 pd channel;
#N canvas 443 147 450 300 bend 0;
#X obj 217 126 bendout 1;
#X obj 353 79 r channel;
#X obj 216 9 r whammy;
#X floatatom 248 93 5 0 0 0 - - -, f 5;
#X obj 165 36 + 32768;
#X obj 216 63 div 4;
#X connect 1 0 0 1;
#X connect 2 0 4 0;
#X connect 4 0 5 0;
#X connect 5 0 3 0;
#X connect 5 0 0 0;
#X restore 9 158 pd bend;
#N canvas 637 283 450 336 keyModeDisplay 0;
#X obj 43 162 t b f;
#X msg 31 185 Ionian Dorian Phrygian Lydian Mixolydian Aeolian Locrian
;
#X obj 36 31 t b f;
#X msg 35 54 C C# D Eb E F F# G G# A Bb B;
#X symbolatom 84 274 10 0 0 0 - - modeName, f 10;
#X obj 71 238 list split 1;
#X symbolatom 33 119 10 0 0 0 - - keyName, f 10;
#X obj 72 209 list split 0;
#X obj 43 139 r mode;
#X obj 36 4 r key;
#X obj 33 98 list split 1;
#X obj 33 76 list split 0;
#X obj 183 2 loadbang;
#X msg 111 21 0;
#X connect 0 0 1 0;
#X connect 0 1 7 1;
#X connect 1 0 7 0;
#X connect 2 0 3 0;
#X connect 2 1 11 1;
#X connect 3 0 11 0;
#X connect 5 0 4 0;
#X connect 7 1 5 0;
#X connect 8 0 0 0;
#X connect 9 0 2 0;
#X connect 10 0 6 0;
#X connect 11 1 10 0;
#X connect 12 0 13 0;
#X connect 13 0 2 0;
#X connect 13 0 1 0;
#X restore 7 89 pd keyModeDisplay;
#N canvas 2 73 450 300 breath 0;
#X obj 78 60 inlet;
#X obj 126 95 r channel;
#X obj 77 153 ctlout 2 1;
#X connect 0 0 2 0;
#X connect 1 0 2 2;
#X restore 205 113 pd breath;
#N canvas 2 73 450 300 aftertouch 0;
#X obj 217 36 inlet;
#X obj 217 87 touchout;
#X obj 269 36 r channel;
#X connect 0 0 1 0;
#X connect 2 0 1 1;
#X restore 205 136 pd aftertouch;
#N canvas 2 79 450 300 modwheel 0;
#X obj 78 60 inlet;
#X obj 126 95 r channel;
#X obj 77 153 ctlout 1 16;
#X connect 0 0 2 0;
#X connect 1 0 2 2;
#X restore 205 161 pd modwheel;
#N canvas 2 79 450 300 freq 0;
#X obj 155 72 inlet;
#X msg 217 117 105;
#X obj 186 156 ctlout 11 16;
#X connect 0 0 2 0;
#X connect 1 0 2 1;
#X restore 205 186 pd freq;
#N canvas 2 79 450 300 res 0;
#X obj 137 27 ctlout 11 16;
#X msg 168 -7 106;
#X obj 121 -38 inlet;
#X obj 251 -30 r channel;
#X connect 1 0 0 1;
#X connect 2 0 0 0;
#X connect 3 0 0 2;
#X restore 205 213 pd res;
#N canvas 531 240 450 300 allNotesOff 0;
#X obj 309 57 r channel;
#X msg 170 48 0 123;
#X obj 187 11 r start;
#X obj 96 14 r notesOff;
#X obj 92 69 bng 15 250 50 0 empty empty empty 17 7 0 10 -262144 -1
-1;
#X obj 196 97 ctlout 123 1;
#X connect 0 0 5 2;
#X connect 1 0 5 0;
#X connect 2 0 1 0;
#X connect 3 0 1 0;
#X connect 3 0 4 0;
#X restore 206 67 pd allNotesOff;
#N canvas 676 88 450 410 tilt 0;
#X obj 132 260 s tilt_destination;
#X msg 216 213 breath;
#X msg 147 213 modwheel;
#X msg 269 213 aftertouch;
#X msg 80 213 velocity;
#X obj 162 4 r tilt;
#X obj 132 237 symbol;
#X obj 53 4 r tilt_select;
#X obj 78 162 t f b;
#X obj 195 162 t f b;
#X obj 266 161 t f b;
#X obj 128 162 t f b;
#X obj 142 52 f;
#X obj 162 32 t b f;
#X obj 172 81 pack;
#X obj 29 188 unpack;
#X floatatom 23 216 5 0 0 0 - - -, f 5;
#X floatatom 48 236 5 0 0 0 - - -, f 5;
#X floatatom 298 47 5 0 0 0 - - -, f 5;
#X obj 80 100 print;
#X obj 139 112 route 0 1 2 3 4;
#X obj 227 22 - 55;
#X obj 222 53 moses 100;
#X obj 46 313 s velocity;
#X obj 5 332 s receiveVelocity;
#X obj 23 292 spigot;
#X obj 61 259 tgl 15 0 empty fixedOnOff empty 17 7 0 10 -262144 -1
-1 0 1;
#X connect 1 0 6 0;
#X connect 2 0 6 0;
#X connect 3 0 6 0;
#X connect 4 0 6 0;
#X connect 5 0 21 0;
#X connect 6 0 0 0;
#X connect 7 0 12 0;
#X connect 8 0 15 0;
#X connect 8 1 4 0;
#X connect 9 1 1 0;
#X connect 10 1 3 0;
#X connect 11 1 2 0;
#X connect 12 0 14 0;
#X connect 13 0 12 0;
#X connect 13 1 14 1;
#X connect 14 0 20 0;
#X connect 15 0 16 0;
#X connect 15 1 17 0;
#X connect 16 0 25 0;
#X connect 20 0 8 0;
#X connect 20 1 11 0;
#X connect 20 2 9 0;
#X connect 20 3 10 0;
#X connect 21 0 22 0;
#X connect 22 0 18 0;
#X connect 22 0 13 0;
#X connect 25 0 23 0;
#X connect 25 0 24 0;
#X connect 26 0 25 1;
#X restore 11 238 pd tilt;
#N canvas 636 147 450 300 displayProperties 0;
#X restore 29 307 pd displayProperties;
#N canvas 622 177 450 300 altdisplay 0;
#X restore 55 276 pd altdisplay;
#N canvas 682 259 450 300 powerChord 0;
#X obj 179 99 + 7;
#X obj 179 139 spigot;
#X obj 229 110 tgl 15 0 empty powerChord powerChord 17 7 0 10 -262144
-1 -1 0 1;
#X obj 179 197 noteout;
#X obj 225 176 r channel;
#X obj 202 158 r velocity;
#X obj 179 59 r powerNoteVal;
#X connect 0 0 1 0;
#X connect 1 0 3 0;
#X connect 2 0 1 1;
#X connect 4 0 3 2;
#X connect 5 0 3 1;
#X connect 6 0 0 0;
#X restore 215 268 pd powerChord;
#N canvas 486 374 450 300 neckNote 0;
#X obj 97 105 +;
#X obj 107 163 +;
#X obj 170 124 r powerNoteVal;
#X obj 169 154 mod 12;
#X floatatom 167 186 5 0 0 0 - - -, f 5;
#X obj 15 27 r neckDiatonic;
#X floatatom 107 185 5 0 0 0 - - -, f 5;
#X obj 123 73 r octaveKeyOffset;
#X connect 0 0 1 0;
#X connect 1 0 6 0;
#X connect 2 0 3 0;
#X connect 3 0 4 0;
#X connect 3 0 1 1;
#X connect 5 0 0 0;
#X connect 7 0 0 1;
#X restore 67 66 pd neckNote;
#X restore 314 173 pd program;
#X floatatom 64 52 5 1 16 0 Channel channel directchannel, f 5;
#X obj 67 18 bng 15 250 50 0 notesOff empty Panic 17 7 0 10 -262144
-1 -1;
#X floatatom 64 71 5 0 0 0 Patch patch directpatch, f 5;
#X obj 188 22 vsl 15 128 -32768 32767 0 0 empty whammy Whammy -20 -9
0 10 -262144 -4160 -1 0 1;
#X obj 242 22 vsl 15 128 128 -127 0 0 empty rotate Rotate 0 -9 0 10
-262144 -1 -1 5877 1;
#X floatatom 26 178 5 0 0 1 Octave oct octave, f 5;
#X floatatom 65 89 5 0 127 0 Velocity receiveVelocity velocity, f
5;
#X obj 26 209 hradio 8 1 0 11 key empty Key 0 -8 0 10 -262144 -1 -1
2;
#X symbolatom 26 219 10 0 0 0 - keyName -, f 10;
#X obj 26 250 hradio 8 1 0 8 mode empty Mode 0 -8 0 10 -262144 -1 -1
0;
#X symbolatom 26 260 10 0 0 0 - modeName -, f 10;
#X obj 215 22 vsl 15 128 55 168 0 0 empty tilt Tilt 0 -9 0 10 -262144
-258113 -1 9104 1;
#X obj 14 10 tgl 40 0 empty strum D3 7 20 0 23 -262144 -258113 -66577
0 1;
#X symbolatom 186 158 10 0 0 0 Tilt tilt_destination -, f 10;
#X floatatom 226 186 2 0 0 0 Tilt - tilt_select, f 2;
#X obj 103 88 tgl 15 0 fixedOnOff velocityName Flowing 17 7 0 10 -262144
-1 -1 0 1;
#X obj 20 116 tgl 15 0 powerChord powerChordRec powerChord 17 7 0 10
-262144 -1 -1 0 1;
#X obj 19 136 tgl 15 0 noteOffMode noteOffModeInit NoteOff_Mode 17
7 0 10 -262144 -1 -1 0 1;
#X coords 0 290 1 289 85 60 0;
